<?xml version="1.0" standalone="no"?>
<!DOCTYPE svg PUBLIC "-//W3C//DTD SVG 20010904//EN"
 "http://www.w3.org/TR/2001/REC-SVG-20010904/DTD/svg10.dtd">
<svg version="1.0" xmlns="http://www.w3.org/2000/svg"
 width="200.000000pt" height="200.000000pt" viewBox="0 0 200.000000 200.000000"
 preserveAspectRatio="xMidYMid meet">
<metadata>
Created by potrace 1.14, written by Peter Selinger 2001-2017
</metadata>
<g transform="translate(0.000000,200.000000) scale(0.100000,-0.100000)"
fill="#000000" stroke="none">
<path d="M1030 1480 c-41 -6 -53 -34 -18 -44 33 -8 53 -7 83 4 22 8 25 13 16
24 -15 18 -38 23 -81 16z"/>
<path d="M745 1423 c-11 -3 -26 -10 -33 -16 -11 -9 -11 -13 4 -24 38 -28 136
-7 116 24 -9 15 -58 24 -87 16z"/>
<path d="M930 1385 c-20 -24 3 -40 55 -40 52 0 75 16 55 40 -8 9 -29 15 -55
15 -26 0 -47 -6 -55 -15z"/>
<path d="M1172 1368 c-62 -16 -28 -52 47 -50 41 2 66 19 51 37 -14 17 -59 23
-98 13z"/>
<path d="M867 1298 c-33 -12 -31 -28 4 -45 31 -15 99 -6 106 15 14 34 -51 52
-110 30z"/>
<path d="M540 1171 c0 -38 25 -101 39 -101 15 0 13 70 -2 99 -19 37 -37 38
-37 2z"/>
<path d="M1294 1065 c-36 -36 -31 -89 9 -93 36 -4 73 20 81 53 15 61 -43 87
-90 40z"/>
<path d="M665 1050 c-15 -24 22 -120 45 -120 14 0 12 74 -2 105 -12 26 -32 33
-43 15z"/>
<path d="M995 985 c-29 -28 -32 -66 -9 -90 30 -30 96 1 108 51 16 61 -51 88
-99 39z"/>
<path d="M1304 931 c-31 -19 -43 -48 -36 -83 5 -27 63 -24 90 5 28 29 29 73 3
87 -25 13 -20 13 -57 -9z"/>
<path d="M560 901 c0 -41 20 -91 36 -91 19 0 18 53 -1 90 -20 38 -35 38 -35 1z"/>
<path d="M998 843 c-24 -26 -33 -70 -18 -88 36 -43 114 5 108 66 -3 31 -6 34
-39 37 -24 2 -40 -3 -51 -15z"/>
<path d="M1289 781 c-61 -61 -12 -123 55 -70 43 34 34 99 -16 99 -5 0 -23 -13
-39 -29z"/>
<path d="M684 733 c9 -70 56 -114 56 -53 0 38 -30 100 -48 100 -12 0 -13 -10
-8 -47z"/>
<path d="M996 689 c-29 -34 -31 -42 -16 -70 22 -39 102 -7 112 45 12 61 -52
78 -96 25z"/>
<path d="M1354 611 c-5 -5 -76 -30 -159 -56 -82 -26 -170 -53 -195 -62 -24 -8
-73 -17 -110 -20 -60 -6 -62 -7 -30 -14 52 -11 167 18 420 107 74 26 98 39 89
49 -3 2 -10 1 -15 -4z"/>
<path d="M797 479 c7 -7 15 -10 18 -7 3 3 -2 9 -12 12 -14 6 -15 5 -6 -5z"/>
</g>
</svg>
